<svg xmlns="http://www.w3.org/2000/svg" width="24" height="24" fill="currentColor" class="bi bi-github" viewBox="0 0 32 32">
  <path d="M30 11.36c0-1.943-0.647-3.8-1.839-5.308 0.46-1.739 0.327-3.572-0.389-5.244-0.156-0.364-0.467-0.64-0.847-0.752-0.491-0.147-2.305-0.417-5.831 1.815-2.909-0.691-5.947-0.691-8.857 0-3.528-2.233-5.347-1.96-5.831-1.815-0.379 0.112-0.689 0.388-0.845 0.752-0.717 1.671-0.848 3.505-0.391 5.244-1.2 1.521-1.848 3.393-1.837 5.348 0 7.151 3.972 9.453 7.729 10.309-0.316 0.791-0.456 1.637-0.396 2.464v0.128c-2.783 0.581-3.689-0.567-4.804-1.983-0.717-0.911-1.529-1.943-2.872-2.277-0.709-0.18-1.439 0.253-1.617 0.971-0.179 0.713 0.256 1.437 0.971 1.616 0.459 0.115 0.907 0.684 1.424 1.341 1.172 1.487 2.875 3.645 6.899 3.035v2.329c0 0.737 0.597 1.333 1.333 1.333s1.333-0.596 1.333-1.333l-0.003-3.915c0.004-0.057 0.004-0.115 0-0.173v-1.167c-0.063-0.893 0.259-1.776 0.881-2.419 0.352-0.363 0.468-0.893 0.3-1.371-0.168-0.476-0.591-0.816-1.093-0.879-3.853-0.479-7.419-1.78-7.419-8.019-0.008-1.539 0.572-3 1.632-4.113 0.352-0.369 0.463-0.907 0.284-1.385-0.385-1.032-0.447-2.137-0.188-3.188 0.653 0.143 1.807 0.553 3.529 1.708 0.32 0.216 0.717 0.279 1.091 0.18 2.824-0.765 5.811-0.765 8.636 0 0.371 0.1 0.771 0.036 1.091-0.18 1.74-1.165 2.9-1.573 3.528-1.717 0.261 1.053 0.2 2.163-0.185 3.197-0.179 0.477-0.069 1.016 0.283 1.385 1.053 1.107 1.633 2.555 1.633 4.081 0 6.313-3.557 7.58-7.4 8.007-0.505 0.057-0.935 0.396-1.107 0.873-0.173 0.479-0.057 1.013 0.296 1.379 0.632 0.652 0.953 1.545 0.877 2.553v5.161c0 0.737 0.596 1.333 1.333 1.333s1.333-0.596 1.333-1.333l-0.004-5.055c0.071-0.887-0.065-1.767-0.381-2.577 3.12-0.677 7.719-2.775 7.719-10.341z"></path>
</svg>