<svg height="40" viewBox="0 0 266 38" xmlns="http://www.w3.org/2000/svg"> 
  <defs>
    <style>.st0{fill:currentColor}</style>
  </defs>
  <path transform="matrix(0.707094, -0.707119, 0.707119, 0.707094, -11.695065, 28.198312)" class="st0" d="M26.89 22.35h2.61v11.73h-2.61z"></path>
  <path transform="matrix(0.707094, -0.707119, 0.707119, 0.707094, -3.999806, 9.619853)" class="st0" d="M8.31 3.77h2.61V15.5H8.31z"></path>
  <path transform="matrix(0.382812, -0.923826, 0.923826, 0.382812, 8.495902, 26.296938)" class="st0" d="M18.06 5.49h11.73V8.1H18.06z"></path>
  <path transform="matrix(0.382812, -0.923826, 0.923826, 0.382812, -20.135798, 31.990094)" class="st0" d="M8.01 29.76h11.73v2.61H8.01z"></path>
  <path class="st0" d="M17.6 26.2h2.61v11.73H17.6zM17.6-.08h2.61v11.73H17.6z"></path>
  <path transform="matrix(0.92388, -0.382683, 0.382683, 0.92388, -10.065885, 11.521379)" class="st0" d="M22.62 25.2h2.61v11.73h-2.61z"></path>
  <path transform="matrix(0.92388, -0.382683, 0.382683, 0.92388, -1.542401, 5.825825)" class="st0" d="M12.57.92h2.61v11.73h-2.61z"></path>
  <path transform="matrix(0.382683, -0.92388, 0.92388, 0.382683, -8.666396, 14.829821)" class="st0" d="M5.46 8.03h2.61v11.73H5.46z"></path>
  <path transform="matrix(0.92388, -0.382683, 0.382683, 0.92388, -2.956749, 12.935421)" class="st0" d="M25.17 12.6H36.9v2.61H25.17z"></path>
  <path transform="matrix(0.92388, -0.382683, 0.382683, 0.92388, -8.651537, 4.411784)" class="st0" d="M.9 22.65h11.73v2.61H.9z"></path>
  <path transform="matrix(0.707094, -0.707119, 0.707119, 0.707094, 1.4415, 22.756004)" class="st0" d="M22.32 8.33h11.73v2.61H22.32z"></path>
  <path transform="matrix(0.707094, -0.707119, 0.707119, 0.707094, -17.136665, 15.061452)" class="st0" d="M3.75 26.91h11.73v2.61H3.75z"></path>
  <text class="st0" style="font-family: Poppins,Helvetica,Arial,sans-serif;font-size: 27px; font-weight:400;" x="41" y="26">termennetwerk</text>
  <rect x="-0.039" y="17.751" width="43.5" height="2.414" class="st0"></rect>
</svg>